<svg width="186" height="19" viewBox="0 0 186 19" fill="none" xmlns="http://www.w3.org/2000/svg">
<path d="M14.4079 18.8409H9.6972L4.71067 10.75V18.8409H0V2.75H4.71067L9.6972 10.9773V2.75H14.4079V18.8409Z" fill="white"/>
<path d="M21.0982 5C20.2778 5 19.62 4.76515 19.1248 4.29545C18.6297 3.82576 18.3822 3.23485 18.3822 2.52273C18.3822 1.79545 18.6297 1.19697 19.1248 0.727273C19.62 0.242424 20.2778 0 21.0982 0C21.9046 0 22.5553 0.242424 23.0504 0.727273C23.5455 1.19697 23.7931 1.79545 23.7931 2.52273C23.7931 3.23485 23.5455 3.82576 23.0504 4.29545C22.5553 4.76515 21.9046 5 21.0982 5ZM23.4324 6.02273V18.8409H18.7217V6.02273H23.4324Z" fill="white"/>
<path d="M36.1271 5.93182C37.4993 5.93182 38.5673 6.42424 39.3312 7.40909C40.1092 8.39394 40.4983 9.72727 40.4983 11.4091V18.8409H35.8088V12.0455C35.8088 11.4394 35.6532 10.9621 35.342 10.6136C35.0449 10.25 34.6418 10.0682 34.1325 10.0682C33.6091 10.0682 33.1988 10.25 32.9018 10.6136C32.6047 10.9621 32.4562 11.4394 32.4562 12.0455V18.8409H27.7455V2.02273H32.4562V7.97727C32.824 7.37121 33.312 6.87879 33.9203 6.5C34.5427 6.12121 35.2783 5.93182 36.1271 5.93182Z" fill="white"/>
<path d="M50.4133 19C49.2109 19 48.1287 18.7348 47.1667 18.2045C46.2048 17.6742 45.448 16.9167 44.8963 15.9318C44.3587 14.9318 44.09 13.7652 44.09 12.4318C44.09 11.0985 44.3587 9.93939 44.8963 8.95455C45.448 7.95455 46.2048 7.18939 47.1667 6.65909C48.1287 6.12879 49.2109 5.86364 50.4133 5.86364C51.6157 5.86364 52.6979 6.12879 53.6598 6.65909C54.6218 7.18939 55.3715 7.95455 55.9091 8.95455C56.4608 9.93939 56.7366 11.0985 56.7366 12.4318C56.7366 13.7652 56.4608 14.9318 55.9091 15.9318C55.3715 16.9167 54.6218 17.6742 53.6598 18.2045C52.6979 18.7348 51.6157 19 50.4133 19ZM50.4133 14.6364C50.8518 14.6364 51.2196 14.4545 51.5167 14.0909C51.8138 13.7121 51.9623 13.1591 51.9623 12.4318C51.9623 11.7045 51.8138 11.1591 51.5167 10.7955C51.2196 10.4167 50.8518 10.2273 50.4133 10.2273C49.9748 10.2273 49.607 10.4167 49.3099 10.7955C49.0128 11.1591 48.8643 11.7045 48.8643 12.4318C48.8643 13.1591 49.0058 13.7121 49.2887 14.0909C49.5857 14.4545 49.9606 14.6364 50.4133 14.6364Z" fill="white"/>
<path d="M68.7837 5.93182C70.1559 5.93182 71.2239 6.42424 71.9878 7.40909C72.7658 8.39394 73.1549 9.72727 73.1549 11.4091V18.8409H68.4654V12.0455C68.4654 11.4394 68.3098 10.9621 67.9986 10.6136C67.7015 10.25 67.2983 10.0682 66.7891 10.0682C66.2657 10.0682 65.8554 10.25 65.5584 10.6136C65.2613 10.9621 65.1128 11.4394 65.1128 12.0455V18.8409H60.4021V6.02273H65.1128V7.97727C65.4806 7.37121 65.9686 6.87879 66.5769 6.5C67.1993 6.12121 67.9349 5.93182 68.7837 5.93182Z" fill="white"/>
<path d="M86.5923 8.25C86.4084 7.93182 86.1467 7.68939 85.8072 7.52273C85.4677 7.34091 85.0574 7.25 84.5765 7.25C83.6711 7.25 82.9709 7.56818 82.4757 8.20455C81.9806 8.82576 81.7331 9.68182 81.7331 10.7727C81.7331 12.0303 82.0089 12.9697 82.5606 13.5909C83.1123 14.2121 83.9611 14.5227 85.1069 14.5227C86.1962 14.5227 87.0733 14.053 87.7381 13.1136H83.9823V9.54545H91.6425V14.5909C90.9917 15.7879 90.0935 16.8182 88.9476 17.6818C87.8018 18.5303 86.3518 18.9545 84.5977 18.9545C83.0416 18.9545 81.6836 18.6136 80.5236 17.9318C79.3777 17.2348 78.4936 16.2652 77.8712 15.0227C77.2629 13.7803 76.9587 12.3636 76.9587 10.7727C76.9587 9.18182 77.2629 7.76515 77.8712 6.52273C78.4936 5.2803 79.3777 4.31818 80.5236 3.63636C81.6694 2.93939 83.0133 2.59091 84.5552 2.59091C86.5216 2.59091 88.1201 3.09849 89.3508 4.11364C90.5957 5.12879 91.3313 6.50758 91.5576 8.25H86.5923Z" fill="white"/>
<path d="M102.845 19C101.431 19 100.129 18.6439 98.9409 17.9318C97.7668 17.2197 96.8331 16.2348 96.1399 14.9773C95.4468 13.7197 95.1002 12.303 95.1002 10.7273C95.1002 9.15151 95.4468 7.73485 96.1399 6.47727C96.8331 5.2197 97.7668 4.24242 98.9409 3.54545C100.129 2.83333 101.431 2.47727 102.845 2.47727C104.26 2.47727 105.554 2.83333 106.728 3.54545C107.902 4.24242 108.829 5.2197 109.508 6.47727C110.201 7.73485 110.548 9.15151 110.548 10.7273C110.548 12.303 110.201 13.7197 109.508 14.9773C108.829 16.2348 107.895 17.2197 106.707 17.9318C105.533 18.6439 104.246 19 102.845 19ZM102.845 14.2955C103.779 14.2955 104.5 13.9773 105.01 13.3409C105.519 12.6894 105.773 11.8182 105.773 10.7273C105.773 9.62121 105.519 8.75 105.01 8.11364C104.5 7.46212 103.779 7.13636 102.845 7.13636C101.897 7.13636 101.169 7.46212 100.66 8.11364C100.15 8.75 99.8958 9.62121 99.8958 10.7273C99.8958 11.8182 100.15 12.6894 100.66 13.3409C101.169 13.9773 101.897 14.2955 102.845 14.2955Z" fill="white"/>
<path d="M134.632 18.8409H129.921L124.935 10.75V18.8409H120.224V2.75H124.935L129.921 10.9773V2.75H134.632V18.8409Z" fill="white"/>
<path d="M150.531 12.3182C150.531 12.6667 150.51 13 150.468 13.3182H142.892C142.963 14.4242 143.395 14.9773 144.187 14.9773C144.696 14.9773 145.064 14.7273 145.29 14.2273H150.277C150.107 15.1364 149.746 15.9545 149.195 16.6818C148.657 17.3939 147.971 17.9621 147.136 18.3864C146.316 18.7955 145.41 19 144.42 19C143.232 19 142.171 18.7348 141.237 18.2045C140.318 17.6742 139.596 16.9167 139.073 15.9318C138.564 14.9318 138.309 13.7652 138.309 12.4318C138.309 11.0985 138.564 9.93939 139.073 8.95455C139.596 7.95455 140.318 7.18939 141.237 6.65909C142.171 6.12879 143.232 5.86364 144.42 5.86364C145.608 5.86364 146.662 6.12879 147.582 6.65909C148.516 7.17424 149.237 7.91667 149.746 8.88636C150.27 9.85606 150.531 11 150.531 12.3182ZM145.757 11.1136C145.757 10.6894 145.63 10.3712 145.375 10.1591C145.12 9.93182 144.802 9.81818 144.42 9.81818C143.586 9.81818 143.098 10.25 142.956 11.1136H145.757Z" fill="white"/>
<path d="M172.37 6.02273L169.527 18.8409H164.222L162.779 11.6136L161.252 18.8409H155.947L153.125 6.02273H157.793L158.79 13.8182L160.339 6.02273H165.368L167.002 13.9091L168.02 6.02273H172.37Z" fill="white"/>
<path d="M180.886 19C179.754 19 178.75 18.803 177.873 18.4091C177.01 18.0152 176.324 17.4697 175.815 16.7727C175.305 16.0758 175.016 15.2879 174.945 14.4091H179.464C179.521 14.7879 179.67 15.0682 179.91 15.25C180.165 15.4318 180.483 15.5227 180.865 15.5227C181.105 15.5227 181.296 15.4697 181.438 15.3636C181.579 15.2424 181.65 15.0985 181.65 14.9318C181.65 14.6439 181.502 14.4394 181.204 14.3182C180.907 14.197 180.405 14.0606 179.698 13.9091C178.835 13.7273 178.121 13.5303 177.555 13.3182C177.003 13.1061 176.515 12.7424 176.091 12.2273C175.68 11.7121 175.475 11 175.475 10.0909C175.475 9.30303 175.666 8.59091 176.048 7.95455C176.444 7.30303 177.024 6.79545 177.788 6.43182C178.552 6.05303 179.479 5.86364 180.568 5.86364C182.181 5.86364 183.44 6.28788 184.345 7.13636C185.264 7.98485 185.816 9.09091 186 10.4545H181.82C181.749 10.1061 181.601 9.84091 181.374 9.65909C181.148 9.46212 180.844 9.36364 180.462 9.36364C180.221 9.36364 180.037 9.41667 179.91 9.52273C179.783 9.61364 179.719 9.75758 179.719 9.95455C179.719 10.2121 179.868 10.4091 180.165 10.5455C180.462 10.6667 180.936 10.7955 181.586 10.9318C182.449 11.1136 183.178 11.3182 183.772 11.5455C184.366 11.7727 184.882 12.1667 185.321 12.7273C185.76 13.2727 185.979 14.0303 185.979 15C185.979 15.7576 185.774 16.4394 185.363 17.0455C184.953 17.6515 184.359 18.1288 183.581 18.4773C182.817 18.8258 181.919 19 180.886 19Z" fill="white"/>
</svg>
